<svg fill="none" xmlns="http://www.w3.org/2000/svg" viewBox="0 0 24 24">
  <g clip-path="url(#tDu2ZePqMPesa)">
    <path fill-rule="evenodd" clip-rule="evenodd" d="M12 22C6.5 22 2 17.5 2 12S6.5 2 12 2s10 4.5 10 10-4.5 10-10 10zm0-18.5c-4.7 0-8.5 3.8-8.5 8.5s3.8 8.5 8.5 8.5 8.5-3.8 8.5-8.5-3.8-8.5-8.5-8.5zm0 14a1 1 0 100-2 1 1 0 000 2zm-.7-11h1.5V14h-1.5V6.5z" fill="#1A1A1C"/>
  </g>
  <defs>
    <clipPath id="tDu2ZePqMPesa">
      <path fill="#fff" d="M0 0h24v24H0z"/>
    </clipPath>
  </defs>
</svg>
